<svg id="图层_1" data-name="图层 1" xmlns="http://www.w3.org/2000/svg" viewBox="0 0 1024 1024"><defs><style>.cls-1{fill:#2b2b2b;}.cls-2{fill:#fff;}.cls-3{fill:#939393;}.cls-4{fill:#ddd;}.cls-5{fill:#705050;}.cls-6{fill:#3a1616;}.cls-7{fill:#3a2c2c;}</style></defs><g id="logo_彩" data-name="logo ➕ 彩"><rect class="cls-1" x="40.3" y="273.49" width="456.41" height="459.78" rx="39.97"/><path class="cls-2" d="M430,434.75c-4.89-11.55-29.36-13.3-64.4-6.77a6.94,6.94,0,0,1-6.72-2.52,125.28,125.28,0,0,0-22-21.68,3,3,0,0,0-.27-.23,123.44,123.44,0,0,0-161.22,10.18,124.76,124.76,0,0,0-37.54,85.83c-.05,1.25-.07,2.54-.07,3.82a126.68,126.68,0,0,0,1.48,19.35,7.1,7.1,0,0,1-2.57,6.59c-22.44,17.88-34,33.75-29.67,43.87,4.37,10.32,24.36,12.82,53.55,8.59a7.44,7.44,0,0,1,6.77,2.57q3.23,3.82,6.8,7.43a123.47,123.47,0,0,0,175.5,0A124.72,124.72,0,0,0,386,503.38q0-4.69-.34-9.31a7.59,7.59,0,0,1,3.13-6.72C418.67,466,435,446.5,430,434.75ZM368.25,476c-2.31,13.41-16.14,17.48-28.51,15.62-10.84-1.63-21.82-9.54-33-.53-11.54,9.28-8.18,23.38-6.81,33.63a68.74,68.74,0,0,1,.6,12.16,45.2,45.2,0,0,1-8.24,24.59c-26.85,36.92-107.17,27.91-121.5-19.76-2.1-7-2.41-17.19,3-25.73a3.66,3.66,0,0,0-4-5.45c-17.21,4.39-27.62,2.57-27.67-10.8,1.77-64.23,54.84-117.09,119.83-117.09C289,382.61,316,390.68,334,407c0,0,0,0,0,0,11.88,11.07,3.79,29.13-23.54,43.9,14.4-3.6,26.87-4.3,35.58-3C360.36,450,370.87,460.61,368.25,476Z"/><ellipse class="cls-3" cx="286.41" cy="454.74" rx="10.09" ry="10.17"/><ellipse class="cls-4" cx="212.67" cy="495.62" rx="10.09" ry="10.17"/><path class="cls-5" d="M556.93,601.68V603H541.06v10.13h15.07v1.26H541.06v11.11h16.46v1.26H539.7v-25Z"/><path class="cls-5" d="M573,612.13a6.75,6.75,0,0,1,2.33-2.94,5.36,5.36,0,0,1,3.37-1.09,5.72,5.72,0,0,1,4.46,1.75,7.29,7.29,0,0,1,1.6,5v11.85h-1.33V615a6.41,6.41,0,0,0-1.14-4.14,4.65,4.65,0,0,0-3.83-1.5,4.44,4.44,0,0,0-3.59,1.64,5.75,5.75,0,0,0-1.46,4v11.71h-1.35V615c0-3.79-1.64-5.64-4.88-5.64a4.53,4.53,0,0,0-3.65,1.78,6.32,6.32,0,0,0-1.49,4.31v11.29h-1.36V608.59H562v3.08a5.67,5.67,0,0,1,5.32-3.57A5.34,5.34,0,0,1,573,612.13Z"/><path class="cls-5" d="M603.08,611a10.66,10.66,0,0,1,2,6.63,10.87,10.87,0,0,1-2,6.62,7,7,0,0,1-6,2.91c-3.2,0-5.39-1.61-6.64-4.77v11.22h-1.36V608.59h1.29v4.24q2-4.73,6.68-4.73A7,7,0,0,1,603.08,611Zm-11,.77a9.27,9.27,0,0,0-1.64,5.75V618a9.17,9.17,0,0,0,1.67,5.68A5.79,5.79,0,0,0,597,626a5.91,5.91,0,0,0,5-2.41,9.89,9.89,0,0,0,1.63-5.89,9.65,9.65,0,0,0-1.63-5.82,5.76,5.76,0,0,0-5-2.52A5.66,5.66,0,0,0,592.09,611.81Z"/><path class="cls-5" d="M622.54,611.08a10.31,10.31,0,0,1,2.12,6.59,10.55,10.55,0,0,1-2.12,6.59,7.62,7.62,0,0,1-6.26,2.94,7.52,7.52,0,0,1-6.27-2.94,10.37,10.37,0,0,1-2.12-6.59,10.14,10.14,0,0,1,2.12-6.59,7.45,7.45,0,0,1,6.27-3A7.55,7.55,0,0,1,622.54,611.08Zm-11.52.8a9.26,9.26,0,0,0-1.77,5.79,9.16,9.16,0,0,0,1.77,5.75,6.29,6.29,0,0,0,5.26,2.55,6.36,6.36,0,0,0,5.25-2.55,10.29,10.29,0,0,0,0-11.54,6.28,6.28,0,0,0-5.25-2.55A6.21,6.21,0,0,0,611,611.88Z"/><path class="cls-5" d="M627.21,608.59l5.39,16.23,4.91-16.23h1.39l4.91,16.23,5.39-16.23h1.5l-6.23,18.12h-1.32l-4.91-16.23-5,16.23h-1.32l-6.23-18.12Z"/><path class="cls-5" d="M666.06,611a13.22,13.22,0,0,1,2,7.12H653a8.9,8.9,0,0,0,1.91,5.71,6.22,6.22,0,0,0,4.91,2.17,6.39,6.39,0,0,0,4.38-1.5,7.42,7.42,0,0,0,2-3.58h1.43a8.68,8.68,0,0,1-2.37,4.35,7.76,7.76,0,0,1-5.46,2,7.34,7.34,0,0,1-6-2.63,11.57,11.57,0,0,1-.1-13.6,8,8,0,0,1,12.28,0Zm-11,.49a9.06,9.06,0,0,0-2,5.44h13.64c-.38-5-2.64-7.57-6.82-7.57A6,6,0,0,0,655,611.46Z"/><path class="cls-5" d="M681.33,608.45v1.44a10.36,10.36,0,0,0-2.85-.42,4.94,4.94,0,0,0-4.35,2.55,9.34,9.34,0,0,0-1.39,5.12v9.57h-1.36V608.59h1.36v3.78a6.74,6.74,0,0,1,2.09-2.9,5.58,5.58,0,0,1,3.72-1.37A8.51,8.51,0,0,1,681.33,608.45Z"/><path class="cls-5" d="M708.23,610.2a7.09,7.09,0,0,1,1.54,4.8v11.71h-1.29v-3.89a10.93,10.93,0,0,1-3,2.91,9.31,9.31,0,0,1-5,1.47,6.41,6.41,0,0,1-4.14-1.3,4.24,4.24,0,0,1-1.7-3.57,4.88,4.88,0,0,1,2.61-4.59,12.17,12.17,0,0,1,6.37-1.33l4.83,0v-1.23c0-3.89-1.91-5.81-5.74-5.81a7,7,0,0,0-4,1,4.82,4.82,0,0,0-2.15,3.23l-1.29-.14a5.89,5.89,0,0,1,2.57-4,8.28,8.28,0,0,1,4.88-1.33A6.89,6.89,0,0,1,708.23,610.2Zm-4.59,7.36c-5.11,0-7.65,1.65-7.65,4.8a3.16,3.16,0,0,0,1.28,2.67,5.76,5.76,0,0,0,3.45,1,8.06,8.06,0,0,0,5.36-2.1c1.56-1.34,2.36-2.7,2.36-4.1v-2.28Z"/><path class="cls-5" d="M715.82,601.19v25.52H714.5V601.19Z"/><path class="cls-5" d="M722.22,601.19v25.52H720.9V601.19Z"/><path class="cls-5" d="M742.89,608.59h5v1.23h-5v13.07a3.06,3.06,0,0,0,.48,2,2.22,2.22,0,0,0,1.81.59h2.26v1.23h-2.36a3.39,3.39,0,0,1-2.82-1,4.47,4.47,0,0,1-.7-2.8V609.82h-4.07v-1.23h4.07v-5.26l1.33-.59Z"/><path class="cls-5" d="M763.28,611a13.22,13.22,0,0,1,2,7.12h-15a8.85,8.85,0,0,0,1.92,5.71,6.18,6.18,0,0,0,4.9,2.17,6.43,6.43,0,0,0,4.39-1.5,7.41,7.41,0,0,0,2-3.58h1.43a8.74,8.74,0,0,1-2.36,4.35,7.8,7.8,0,0,1-5.47,2,7.35,7.35,0,0,1-5.95-2.63A11.57,11.57,0,0,1,751,611a8,8,0,0,1,12.28,0Zm-11,.49a9.06,9.06,0,0,0-2,5.44h13.64c-.38-5-2.64-7.57-6.82-7.57A6,6,0,0,0,752.25,611.46Z"/><path class="cls-5" d="M781.31,610.2a7.09,7.09,0,0,1,1.53,4.8v11.71h-1.29v-3.89a10.79,10.79,0,0,1-3,2.91,9.25,9.25,0,0,1-5,1.47,6.39,6.39,0,0,1-4.14-1.3,4.21,4.21,0,0,1-1.7-3.57,4.88,4.88,0,0,1,2.61-4.59,12.15,12.15,0,0,1,6.36-1.33l4.84,0v-1.23c0-3.89-1.92-5.81-5.74-5.81a7,7,0,0,0-4,1,4.8,4.8,0,0,0-2.16,3.23l-1.28-.14a5.86,5.86,0,0,1,2.57-4,8.25,8.25,0,0,1,4.87-1.33A6.91,6.91,0,0,1,781.31,610.2Zm-4.59,7.36c-5.12,0-7.66,1.65-7.66,4.8a3.16,3.16,0,0,0,1.29,2.67,5.75,5.75,0,0,0,3.44,1,8,8,0,0,0,5.36-2.1c1.57-1.34,2.37-2.7,2.37-4.1v-2.28Z"/><path class="cls-5" d="M799.5,612.13a6.75,6.75,0,0,1,2.33-2.94,5.36,5.36,0,0,1,3.37-1.09,5.72,5.72,0,0,1,4.46,1.75,7.29,7.29,0,0,1,1.6,5v11.85h-1.33V615a6.41,6.41,0,0,0-1.14-4.14,4.65,4.65,0,0,0-3.83-1.5,4.44,4.44,0,0,0-3.59,1.64,5.75,5.75,0,0,0-1.46,4v11.71h-1.35V615c0-3.79-1.64-5.64-4.88-5.64a4.53,4.53,0,0,0-3.65,1.78,6.32,6.32,0,0,0-1.49,4.31v11.29h-1.36V608.59h1.36v3.08a5.67,5.67,0,0,1,5.32-3.57A5.34,5.34,0,0,1,799.5,612.13Z"/><path class="cls-5" d="M828.35,613.6H827a4.91,4.91,0,0,0-1.6-3.08,6.09,6.09,0,0,0-4-1.19,5.78,5.78,0,0,0-3.54,1,2.72,2.72,0,0,0,.24,4.94,19,19,0,0,0,3.86,1.33,18.47,18.47,0,0,1,4.7,1.65,3.93,3.93,0,0,1,2.19,3.57c0,3.58-2.33,5.4-7,5.4-4.46,0-6.93-2-7.34-6.1h1.35a5.17,5.17,0,0,0,1.85,3.79,6.72,6.72,0,0,0,4.14,1.08c3.75,0,5.63-1.4,5.63-4.13a3,3,0,0,0-1.88-2.74,21.56,21.56,0,0,0-4.17-1.36,17.68,17.68,0,0,1-4.38-1.61,3.76,3.76,0,0,1-2-3.37,3.94,3.94,0,0,1,1.88-3.4,7.67,7.67,0,0,1,4.45-1.26C825.5,608.1,827.8,609.92,828.35,613.6Z"/><path class="cls-5" d="M847.67,608.59h5v1.23h-5v13.07a3,3,0,0,0,.49,2,2.19,2.19,0,0,0,1.81.59h2.26v1.23h-2.37a3.39,3.39,0,0,1-2.82-1,4.54,4.54,0,0,1-.69-2.8V609.82h-4.07v-1.23h4.07v-5.26l1.32-.59Z"/><path class="cls-5" d="M868.42,611.08a10.31,10.31,0,0,1,2.12,6.59,10.55,10.55,0,0,1-2.12,6.59,8.15,8.15,0,0,1-12.53,0,10.37,10.37,0,0,1-2.12-6.59,10.14,10.14,0,0,1,2.12-6.59,8.08,8.08,0,0,1,12.53,0Zm-11.52.8a9.26,9.26,0,0,0-1.77,5.79,9.16,9.16,0,0,0,1.77,5.75,6.29,6.29,0,0,0,5.26,2.55,6.36,6.36,0,0,0,5.25-2.55,10.24,10.24,0,0,0,0-11.54,6.28,6.28,0,0,0-5.25-2.55A6.21,6.21,0,0,0,856.9,611.88Z"/><path class="cls-5" d="M901.13,601.19v25.52h-1.29v-4.24a6.77,6.77,0,0,1-6.71,4.73,7,7,0,0,1-6-2.91,12.18,12.18,0,0,1,0-13.25,6.91,6.91,0,0,1,5.91-2.94q4.8,0,6.68,4.84V601.19Zm-12.91,10.62a11.18,11.18,0,0,0,0,11.71,5.94,5.94,0,0,0,5,2.45,5.8,5.8,0,0,0,4.94-2.38,9.25,9.25,0,0,0,1.64-5.64v-.46a9.49,9.49,0,0,0-1.67-5.78,6.28,6.28,0,0,0-9.92.1Z"/><path class="cls-5" d="M919,611a13.22,13.22,0,0,1,2,7.12H906a8.9,8.9,0,0,0,1.91,5.71A6.22,6.22,0,0,0,912.8,626a6.39,6.39,0,0,0,4.38-1.5,7.42,7.42,0,0,0,2-3.58h1.43a8.68,8.68,0,0,1-2.37,4.35,7.76,7.76,0,0,1-5.46,2,7.34,7.34,0,0,1-5.95-2.63,11.57,11.57,0,0,1-.1-13.6A8,8,0,0,1,919,611Zm-11,.49a9.06,9.06,0,0,0-2,5.44h13.64c-.38-5-2.64-7.57-6.82-7.57A6,6,0,0,0,908,611.46Z"/><path class="cls-5" d="M926.1,601.19v25.52h-1.32V601.19Z"/><path class="cls-5" d="M933,602.84a1.25,1.25,0,0,1,.41,1,1.42,1.42,0,0,1-1.39,1.4,1.19,1.19,0,0,1-1-.42,1.32,1.32,0,0,1-.42-1,1.23,1.23,0,0,1,.42-1,1.19,1.19,0,0,1,1-.42A1.33,1.33,0,0,1,933,602.84Zm-.32,5.75v18.12h-1.32V608.59Z"/><path class="cls-5" d="M937.22,608.59,943.41,625l6.19-16.37h1.5l-7,18.12h-1.46l-7-18.12Z"/><path class="cls-5" d="M966.33,611a13.22,13.22,0,0,1,2,7.12h-15a8.9,8.9,0,0,0,1.91,5.71A6.22,6.22,0,0,0,960.1,626a6.43,6.43,0,0,0,4.39-1.5,7.41,7.41,0,0,0,2-3.58h1.43a8.68,8.68,0,0,1-2.37,4.35,7.76,7.76,0,0,1-5.46,2,7.35,7.35,0,0,1-6-2.63,11.57,11.57,0,0,1-.1-13.6,8,8,0,0,1,12.28,0Zm-11,.49a9.06,9.06,0,0,0-2,5.44h13.64c-.38-5-2.64-7.57-6.82-7.57A6,6,0,0,0,955.3,611.46Z"/><path class="cls-5" d="M981.61,608.45v1.44a10.48,10.48,0,0,0-2.86-.42A4.94,4.94,0,0,0,974.4,612a9.34,9.34,0,0,0-1.39,5.12v9.57h-1.36V608.59H973v3.78a6.74,6.74,0,0,1,2.09-2.9,5.58,5.58,0,0,1,3.72-1.37A8.62,8.62,0,0,1,981.61,608.45Z"/><path class="cls-5" d="M983.28,624.64a3.35,3.35,0,0,1,.42,1.83,4.83,4.83,0,0,1-1.05,3.11,4.7,4.7,0,0,1-2.68,1.65v-1.05a3.74,3.74,0,0,0,1.95-1.33,3.61,3.61,0,0,0,.63-2.14,2.6,2.6,0,0,1-.7.07,1.3,1.3,0,0,1-1-.42,1.38,1.38,0,0,1-.42-1,1.37,1.37,0,0,1,.42-1.09,1.19,1.19,0,0,1,1-.38A1.59,1.59,0,0,1,983.28,624.64Z"/><path class="cls-5" d="M551.85,653.75a7,7,0,0,1,2.4,4.77h-1.33A5.68,5.68,0,0,0,551,654.7a6.57,6.57,0,0,0-4.21-1.3,5.9,5.9,0,0,0-5,2.46,9.66,9.66,0,0,0-1.77,6.06,9.19,9.19,0,0,0,1.7,5.85,5.92,5.92,0,0,0,5,2.28c3.58,0,5.67-1.89,6.3-5.64h1.32a8.45,8.45,0,0,1-2.5,5.12,7.55,7.55,0,0,1-5.12,1.75,7.28,7.28,0,0,1-6.09-2.73,10.46,10.46,0,0,1-2-6.63,10.72,10.72,0,0,1,2.09-6.83,7.06,7.06,0,0,1,6-2.91A7.9,7.9,0,0,1,551.85,653.75Z"/><path class="cls-5" d="M571.57,655.16a10.31,10.31,0,0,1,2.12,6.59,10.5,10.5,0,0,1-2.12,6.58,7.61,7.61,0,0,1-6.27,2.95,7.5,7.5,0,0,1-6.26-2.95,10.26,10.26,0,0,1-2.12-6.58,10.08,10.08,0,0,1,2.12-6.59,7.45,7.45,0,0,1,6.26-3A7.55,7.55,0,0,1,571.57,655.16Zm-11.52.8a9.25,9.25,0,0,0-1.78,5.79,9.12,9.12,0,0,0,1.78,5.74,6.26,6.26,0,0,0,5.25,2.56,6.37,6.37,0,0,0,5.26-2.56,10.27,10.27,0,0,0,0-11.53,6.29,6.29,0,0,0-5.26-2.56A6.19,6.19,0,0,0,560.05,656Z"/><path class="cls-5" d="M591.31,659.68v11.11H590V659.71c0-4.2-1.85-6.31-5.5-6.31a5.26,5.26,0,0,0-4.07,1.79,6.75,6.75,0,0,0-1.78,4.63v11h-1.35V652.67h1.35V656a7,7,0,0,1,2.44-2.77,6.51,6.51,0,0,1,3.62-1C589.09,652.18,591.31,654.66,591.31,659.68Z"/><path class="cls-5" d="M598.74,652.67h5v1.22h-5V667a3,3,0,0,0,.49,2,2.22,2.22,0,0,0,1.81.59h2.26v1.23h-2.36a3.39,3.39,0,0,1-2.82-1,4.47,4.47,0,0,1-.7-2.8V653.89h-4.07v-1.22h4.07v-5.26l1.32-.6Z"/><path class="cls-5" d="M616.56,652.53V654a10.41,10.41,0,0,0-2.85-.42,4.93,4.93,0,0,0-4.35,2.56,9.32,9.32,0,0,0-1.39,5.12v9.57h-1.36V652.67H608v3.78a6.81,6.81,0,0,1,2.08-2.91,5.65,5.65,0,0,1,3.73-1.36A8.51,8.51,0,0,1,616.56,652.53Z"/><path class="cls-5" d="M631.94,655.16a10.31,10.31,0,0,1,2.12,6.59,10.5,10.5,0,0,1-2.12,6.58,7.6,7.6,0,0,1-6.26,2.95,7.51,7.51,0,0,1-6.27-2.95,10.32,10.32,0,0,1-2.12-6.58,10.14,10.14,0,0,1,2.12-6.59,7.45,7.45,0,0,1,6.27-3A7.55,7.55,0,0,1,631.94,655.16Zm-11.52.8a9.24,9.24,0,0,0-1.77,5.79,9.11,9.11,0,0,0,1.77,5.74,6.27,6.27,0,0,0,5.26,2.56,6.34,6.34,0,0,0,5.25-2.56,10.27,10.27,0,0,0,0-11.53,6.26,6.26,0,0,0-5.25-2.56A6.19,6.19,0,0,0,620.42,656Z"/><path class="cls-5" d="M639.38,645.27v25.52h-1.33V645.27Z"/><path class="cls-5" d="M646.85,668.72a3.43,3.43,0,0,1,.41,1.82,4.71,4.71,0,0,1-3.72,4.77v-1a3.74,3.74,0,0,0,2-1.33,3.61,3.61,0,0,0,.63-2.14,3.1,3.1,0,0,1-.7.07,1.3,1.3,0,0,1-1-.42,1.38,1.38,0,0,1-.42-1,1.37,1.37,0,0,1,.42-1.09,1.18,1.18,0,0,1,1-.39A1.6,1.6,0,0,1,646.85,668.72Z"/><path class="cls-5" d="M664.29,655.05a13.22,13.22,0,0,1,2,7.12h-15a8.85,8.85,0,0,0,1.91,5.71,6.2,6.2,0,0,0,4.91,2.17,6.39,6.39,0,0,0,4.38-1.5,7.47,7.47,0,0,0,2-3.58h1.43a8.72,8.72,0,0,1-2.37,4.35,7.84,7.84,0,0,1-5.46,2,7.34,7.34,0,0,1-5.95-2.63,11.59,11.59,0,0,1-.11-13.6,8,8,0,0,1,12.29,0Zm-11,.49a9.06,9.06,0,0,0-2,5.43h13.64c-.39-5-2.65-7.57-6.82-7.57A5.94,5.94,0,0,0,653.26,655.54Z"/><path class="cls-5" d="M669.07,652.67l5.71,7.53,5.71-7.53h1.63l-6.54,8.59,7.31,9.53h-1.67l-6.44-8.52-6.47,8.52h-1.64l7.31-9.53-6.58-8.59Z"/><path class="cls-5" d="M699.34,655.12a10.71,10.71,0,0,1,2,6.63,10.94,10.94,0,0,1-2,6.62,7,7,0,0,1-6,2.91c-3.2,0-5.39-1.61-6.64-4.77v11.22h-1.36V652.67h1.29v4.24c1.35-3.16,3.58-4.73,6.68-4.73A7,7,0,0,1,699.34,655.12Zm-11,.77a9.25,9.25,0,0,0-1.64,5.75v.42a9.19,9.19,0,0,0,1.67,5.68,5.78,5.78,0,0,0,4.87,2.31,5.9,5.9,0,0,0,5-2.42,9.86,9.86,0,0,0,1.63-5.88,9.65,9.65,0,0,0-1.63-5.82,5.76,5.76,0,0,0-5-2.53A5.66,5.66,0,0,0,688.35,655.89Z"/><path class="cls-5" d="M718.42,655.05a13.22,13.22,0,0,1,2,7.12h-15a8.85,8.85,0,0,0,1.92,5.71,6.2,6.2,0,0,0,4.9,2.17,6.43,6.43,0,0,0,4.39-1.5,7.55,7.55,0,0,0,2-3.58H720a8.78,8.78,0,0,1-2.36,4.35,7.85,7.85,0,0,1-5.47,2,7.37,7.37,0,0,1-6-2.63,11.57,11.57,0,0,1-.1-13.6,8,8,0,0,1,12.28,0Zm-11,.49a9.06,9.06,0,0,0-2,5.43H719c-.38-5-2.64-7.57-6.82-7.57A6,6,0,0,0,707.39,655.54Z"/><path class="cls-5" d="M733.7,652.53V654a10.46,10.46,0,0,0-2.85-.42,4.91,4.91,0,0,0-4.35,2.56,9.32,9.32,0,0,0-1.4,5.12v9.57h-1.35V652.67h1.35v3.78a6.92,6.92,0,0,1,2.09-2.91,5.62,5.62,0,0,1,3.72-1.36A8.62,8.62,0,0,1,733.7,652.53Z"/><path class="cls-5" d="M738.39,646.92a1.21,1.21,0,0,1,.42,1,1.44,1.44,0,0,1-1.39,1.4,1.23,1.23,0,0,1-1-.42,1.32,1.32,0,0,1-.42-1,1.21,1.21,0,0,1,.42-1,1.23,1.23,0,0,1,1-.42A1.31,1.31,0,0,1,738.39,646.92Zm-.31,5.75v18.12h-1.33V652.67Z"/><path class="cls-5" d="M755.32,656.21a6.85,6.85,0,0,1,2.33-3,5.43,5.43,0,0,1,3.37-1.08,5.72,5.72,0,0,1,4.46,1.75,7.29,7.29,0,0,1,1.6,5v11.85h-1.32V659.05a6.39,6.39,0,0,0-1.15-4.14,4.63,4.63,0,0,0-3.83-1.51,4.43,4.43,0,0,0-3.58,1.65,5.71,5.71,0,0,0-1.46,4v11.71h-1.36V659.05c0-3.79-1.64-5.65-4.87-5.65a4.56,4.56,0,0,0-3.66,1.79,6.35,6.35,0,0,0-1.49,4.31v11.29H743V652.67h1.36v3.08a5.68,5.68,0,0,1,5.32-3.57A5.34,5.34,0,0,1,755.32,656.21Z"/><path class="cls-5" d="M784.9,655.05a13.22,13.22,0,0,1,2,7.12h-15a8.9,8.9,0,0,0,1.91,5.71,6.22,6.22,0,0,0,4.91,2.17,6.39,6.39,0,0,0,4.38-1.5,7.47,7.47,0,0,0,2-3.58h1.43a8.72,8.72,0,0,1-2.37,4.35,7.81,7.81,0,0,1-5.46,2,7.34,7.34,0,0,1-5.95-2.63,11.57,11.57,0,0,1-.1-13.6,8,8,0,0,1,12.28,0Zm-11,.49a9.06,9.06,0,0,0-2,5.43h13.64q-.57-7.56-6.82-7.57A6,6,0,0,0,773.87,655.54Z"/><path class="cls-5" d="M804.28,659.68v11.11h-1.36V659.71c0-4.2-1.84-6.31-5.49-6.31a5.28,5.28,0,0,0-4.08,1.79,6.79,6.79,0,0,0-1.77,4.63v11h-1.36V652.67h1.36V656a7,7,0,0,1,2.44-2.77,6.46,6.46,0,0,1,3.61-1C802.05,652.18,804.28,654.66,804.28,659.68Z"/><path class="cls-5" d="M811.71,652.67h5v1.22h-5V667a3,3,0,0,0,.49,2,2.2,2.2,0,0,0,1.81.59h2.26v1.23H813.9a3.41,3.41,0,0,1-2.82-1,4.54,4.54,0,0,1-.69-2.8V653.89h-4.07v-1.22h4.07v-5.26l1.32-.6Z"/><path class="cls-5" d="M831,652.67l5.39,16.23,4.9-16.23h1.4l4.9,16.23,5.39-16.23h1.5l-6.23,18.12h-1.32L842,654.56l-5,16.23h-1.32l-6.23-18.12Z"/><path class="cls-5" d="M859.19,646.92a1.24,1.24,0,0,1,.41,1,1.42,1.42,0,0,1-1.39,1.4,1.19,1.19,0,0,1-1-.42,1.32,1.32,0,0,1-.42-1,1.21,1.21,0,0,1,.42-1,1.19,1.19,0,0,1,1-.42A1.33,1.33,0,0,1,859.19,646.92Zm-.32,5.75v18.12h-1.32V652.67Z"/><path class="cls-5" d="M867.52,652.67h5v1.22h-5V667a3,3,0,0,0,.49,2,2.2,2.2,0,0,0,1.81.59h2.26v1.23h-2.37a3.41,3.41,0,0,1-2.82-1,4.54,4.54,0,0,1-.69-2.8V653.89h-4.07v-1.22h4.07v-5.26l1.32-.6Z"/><path class="cls-5" d="M876.74,645.27v11a7.74,7.74,0,0,1,2.58-3,6,6,0,0,1,3.55-1.08,6.37,6.37,0,0,1,4.76,1.78,7.11,7.11,0,0,1,1.78,5.16v11.67h-1.32V659.22a6,6,0,0,0-1.5-4.34,5.31,5.31,0,0,0-4-1.48,5.18,5.18,0,0,0-4.1,2,7,7,0,0,0-1.78,4.83v10.59h-1.35V645.27Z"/><path class="cls-5" d="M896.58,668.72a3.33,3.33,0,0,1,.42,1.82,4.91,4.91,0,0,1-1,3.12,4.84,4.84,0,0,1-2.68,1.65v-1a3.78,3.78,0,0,0,2-1.33,3.67,3.67,0,0,0,.62-2.14,3,3,0,0,1-.69.07,1.33,1.33,0,0,1-1-.42,1.41,1.41,0,0,1-.41-1,1.4,1.4,0,0,1,.41-1.09,1.22,1.22,0,0,1,1.05-.39A1.59,1.59,0,0,1,896.58,668.72Z"/><path class="cls-5" d="M552.26,698.36a7.07,7.07,0,0,1,1.53,4.8v11.71h-1.28V711a11,11,0,0,1-3,2.91,9.25,9.25,0,0,1-5,1.47,6.46,6.46,0,0,1-4.14-1.3,4.27,4.27,0,0,1-1.7-3.58,4.88,4.88,0,0,1,2.61-4.59,12.17,12.17,0,0,1,6.37-1.33l4.83,0V703.3c0-3.89-1.91-5.82-5.74-5.82a7,7,0,0,0-4,1,4.8,4.8,0,0,0-2.15,3.22l-1.29-.14a5.9,5.9,0,0,1,2.57-4,8.28,8.28,0,0,1,4.88-1.34A6.9,6.9,0,0,1,552.26,698.36Zm-4.59,7.36c-5.11,0-7.65,1.65-7.65,4.8a3.14,3.14,0,0,0,1.28,2.66,5.76,5.76,0,0,0,3.45,1,8.07,8.07,0,0,0,5.36-2.11c1.56-1.33,2.36-2.7,2.36-4.1v-2.28Z"/><path class="cls-5" d="M572.19,703.75v11.12h-1.36V703.79c0-4.21-1.84-6.31-5.5-6.31a5.27,5.27,0,0,0-4.07,1.79,6.79,6.79,0,0,0-1.77,4.63v11h-1.36V696.74h1.36V700a6.94,6.94,0,0,1,2.43-2.77,6.52,6.52,0,0,1,3.62-1C570,696.25,572.19,698.74,572.19,703.75Z"/><path class="cls-5" d="M591.69,689.35v25.52h-1.28v-4.24c-1.26,3.15-3.52,4.73-6.72,4.73a7,7,0,0,1-6-2.91,12.15,12.15,0,0,1,0-13.25,6.94,6.94,0,0,1,5.92-3c3.2,0,5.42,1.62,6.68,4.84V689.35ZM578.78,700a9.49,9.49,0,0,0-1.67,5.85,9.65,9.65,0,0,0,1.64,5.86,6,6,0,0,0,5,2.45,5.85,5.85,0,0,0,4.94-2.38,9.32,9.32,0,0,0,1.63-5.65v-.45a9.53,9.53,0,0,0-1.67-5.79,6.27,6.27,0,0,0-9.92.11Z"/><path class="cls-5" d="M620.05,700.29a6.81,6.81,0,0,1,2.34-2.95,5.42,5.42,0,0,1,3.37-1.09,5.69,5.69,0,0,1,4.45,1.76,7.22,7.22,0,0,1,1.6,5v11.85h-1.32V703.12a6.32,6.32,0,0,0-1.15-4.13,4.59,4.59,0,0,0-3.82-1.51,4.45,4.45,0,0,0-3.59,1.65,5.75,5.75,0,0,0-1.46,4v11.71h-1.35V703.12c0-3.78-1.64-5.64-4.88-5.64a4.53,4.53,0,0,0-3.65,1.79,6.31,6.31,0,0,0-1.5,4.31v11.29h-1.35V696.74h1.35v3.09a5.7,5.7,0,0,1,5.33-3.58A5.33,5.33,0,0,1,620.05,700.29Z"/><path class="cls-5" d="M650,699.23a10.33,10.33,0,0,1,2.12,6.59,10.51,10.51,0,0,1-2.12,6.59,7.58,7.58,0,0,1-6.26,3,7.5,7.5,0,0,1-6.26-3,10.28,10.28,0,0,1-2.13-6.59,10.11,10.11,0,0,1,2.13-6.59,7.47,7.47,0,0,1,6.26-3A7.55,7.55,0,0,1,650,699.23ZM638.5,700a9.18,9.18,0,0,0-1.78,5.78,9.07,9.07,0,0,0,1.78,5.75,6.26,6.26,0,0,0,5.25,2.56,6.37,6.37,0,0,0,5.25-2.56A10.23,10.23,0,0,0,649,700a6.26,6.26,0,0,0-5.25-2.56A6.16,6.16,0,0,0,638.5,700Z"/><path class="cls-5" d="M669.76,703.75v11.12H668.4V703.79c0-4.21-1.84-6.31-5.49-6.31a5.24,5.24,0,0,0-4.07,1.79,6.75,6.75,0,0,0-1.78,4.63v11H655.7V696.74h1.36V700a6.89,6.89,0,0,1,2.44-2.77,6.49,6.49,0,0,1,3.61-1C667.53,696.25,669.76,698.74,669.76,703.75Z"/><path class="cls-5" d="M687.54,699.13a13.12,13.12,0,0,1,2,7.11h-15a8.8,8.8,0,0,0,1.91,5.72,6.23,6.23,0,0,0,4.9,2.17,6.42,6.42,0,0,0,4.39-1.51,7.47,7.47,0,0,0,2-3.57h1.42a8.56,8.56,0,0,1-2.36,4.34,7.81,7.81,0,0,1-5.47,2,7.37,7.37,0,0,1-5.95-2.63,11.57,11.57,0,0,1-.1-13.6,8,8,0,0,1,12.28,0Zm-11,.49a9,9,0,0,0-2,5.43h13.63c-.38-5-2.64-7.57-6.82-7.57A6,6,0,0,0,676.51,699.62Z"/><path class="cls-5" d="M695.86,696.74h5V698h-5v13.08a3,3,0,0,0,.48,2,2.19,2.19,0,0,0,1.81.6h2.27v1.23h-2.37a3.39,3.39,0,0,1-2.82-1,4.47,4.47,0,0,1-.7-2.8V698h-4.07v-1.23h4.07v-5.25l1.33-.6Z"/><path class="cls-5" d="M705.92,691a1.21,1.21,0,0,1,.42,1,1.33,1.33,0,0,1-.42,1,1.3,1.3,0,0,1-1,.42,1.19,1.19,0,0,1-1-.42,1.33,1.33,0,0,1-.42-1,1.21,1.21,0,0,1,.42-1,1.19,1.19,0,0,1,1-.42A1.3,1.3,0,0,1,705.92,691Zm-.31,5.74v18.13h-1.32V696.74Z"/><path class="cls-5" d="M722.85,696.74V698l-12.21,15.67h12.77v1.23H709v-1.23L721.21,698h-11.9v-1.23Z"/><path class="cls-5" d="M738.83,699.13a13.21,13.21,0,0,1,2,7.11h-15A8.86,8.86,0,0,0,727.7,712a6.23,6.23,0,0,0,4.9,2.17,6.44,6.44,0,0,0,4.39-1.51,7.47,7.47,0,0,0,2-3.57h1.42a8.63,8.63,0,0,1-2.36,4.34,7.81,7.81,0,0,1-5.47,2,7.37,7.37,0,0,1-6-2.63,11.57,11.57,0,0,1-.1-13.6,8,8,0,0,1,12.28,0Zm-11,.49a9.06,9.06,0,0,0-2,5.43h13.64c-.38-5-2.64-7.57-6.82-7.57A6,6,0,0,0,727.8,699.62Z"/><path class="cls-5" d="M759.64,696.74h5V698h-5v13.08a3,3,0,0,0,.49,2,2.17,2.17,0,0,0,1.81.6h2.26v1.23h-2.37a3.38,3.38,0,0,1-2.81-1,4.47,4.47,0,0,1-.7-2.8V698h-4.07v-1.23h4.07v-5.25l1.32-.6Z"/><path class="cls-5" d="M768.86,689.35v11a7.67,7.67,0,0,1,2.58-3,6,6,0,0,1,3.55-1.09,6.4,6.4,0,0,1,4.77,1.79,7.14,7.14,0,0,1,1.77,5.15v11.68h-1.32V703.3a6,6,0,0,0-1.5-4.35,5.33,5.33,0,0,0-4-1.47,5.2,5.2,0,0,0-4.1,2,7.07,7.07,0,0,0-1.78,4.84v10.59h-1.35V689.35Z"/><path class="cls-5" d="M799.33,699.13a13.21,13.21,0,0,1,2,7.11h-15A8.86,8.86,0,0,0,788.2,712a6.21,6.21,0,0,0,4.9,2.17,6.44,6.44,0,0,0,4.39-1.51,7.37,7.37,0,0,0,2-3.57h1.43a8.64,8.64,0,0,1-2.37,4.34,7.77,7.77,0,0,1-5.46,2,7.35,7.35,0,0,1-6-2.63,11.57,11.57,0,0,1-.1-13.6,8,8,0,0,1,12.28,0Zm-11,.49a9.06,9.06,0,0,0-2,5.43h13.64c-.38-5-2.64-7.57-6.82-7.57A6,6,0,0,0,788.3,699.62Z"/><path class="cls-5" d="M806.81,691a1.24,1.24,0,0,1,.41,1,1.36,1.36,0,0,1-.41,1,1.33,1.33,0,0,1-1,.42,1.19,1.19,0,0,1-1-.42,1.33,1.33,0,0,1-.42-1,1.21,1.21,0,0,1,.42-1,1.19,1.19,0,0,1,1-.42A1.33,1.33,0,0,1,806.81,691Zm-.32,5.74v18.13h-1.32V696.74Z"/><path class="cls-5" d="M821.37,696.61V698a10.48,10.48,0,0,0-2.86-.42,4.93,4.93,0,0,0-4.35,2.56,9.32,9.32,0,0,0-1.39,5.12v9.57h-1.35V696.74h1.35v3.79a6.77,6.77,0,0,1,2.09-2.91,5.63,5.63,0,0,1,3.72-1.37A8.59,8.59,0,0,1,821.37,696.61Z"/><path class="cls-5" d="M848.16,701.76h-1.32a5,5,0,0,0-1.6-3.09,6.14,6.14,0,0,0-4-1.19,5.9,5.9,0,0,0-3.55,1,2.72,2.72,0,0,0,.25,4.94,18,18,0,0,0,3.86,1.34,19,19,0,0,1,4.7,1.64,4,4,0,0,1,2.19,3.58c0,3.57-2.33,5.4-7,5.4-4.46,0-6.93-2-7.35-6.1h1.36a5.17,5.17,0,0,0,1.85,3.78,6.72,6.72,0,0,0,4.14,1.09c3.75,0,5.63-1.4,5.63-4.14a3,3,0,0,0-1.88-2.73,21.34,21.34,0,0,0-4.17-1.37,17.55,17.55,0,0,1-4.39-1.61,3.76,3.76,0,0,1-2-3.36,3.93,3.93,0,0,1,1.88-3.4,7.68,7.68,0,0,1,4.45-1.27C845.31,696.25,847.61,698.08,848.16,701.76Z"/><path class="cls-5" d="M865.77,699.23a10.33,10.33,0,0,1,2.13,6.59,10.51,10.51,0,0,1-2.13,6.59,7.58,7.58,0,0,1-6.26,3,7.5,7.5,0,0,1-6.26-3,10.28,10.28,0,0,1-2.13-6.59,10.11,10.11,0,0,1,2.13-6.59,7.47,7.47,0,0,1,6.26-3A7.55,7.55,0,0,1,865.77,699.23Zm-11.51.81a9.18,9.18,0,0,0-1.78,5.78,9.07,9.07,0,0,0,1.78,5.75,6.26,6.26,0,0,0,5.25,2.56,6.37,6.37,0,0,0,5.25-2.56,10.23,10.23,0,0,0,0-11.53,6.26,6.26,0,0,0-5.25-2.56A6.16,6.16,0,0,0,854.26,700Z"/><path class="cls-5" d="M881.06,689.84v1.26h-2.92a2.91,2.91,0,0,0-2.33.81,3.8,3.8,0,0,0-.7,2.63v2.2h5.71V698h-5.71v16.9h-1.32V698h-5.15v-1.23h5.15v-2.2a5,5,0,0,1,1-3.44,4,4,0,0,1,3.27-1.26Z"/><path class="cls-5" d="M888.06,696.74h5V698h-5v13.08a3,3,0,0,0,.49,2,2.17,2.17,0,0,0,1.81.6h2.26v1.23h-2.37a3.38,3.38,0,0,1-2.81-1,4.47,4.47,0,0,1-.7-2.8V698h-4.07v-1.23h4.07v-5.25l1.32-.6Z"/><path class="cls-5" d="M896.43,696.74l5.4,16.23,4.9-16.23h1.39L913,713l5.39-16.23h1.5l-6.23,18.13h-1.32l-4.91-16.23-5,16.23h-1.33l-6.22-18.13Z"/><path class="cls-5" d="M934.68,698.36a7.07,7.07,0,0,1,1.53,4.8v11.71h-1.28V711a11.08,11.08,0,0,1-3,2.91,9.31,9.31,0,0,1-5,1.47,6.46,6.46,0,0,1-4.14-1.3,4.27,4.27,0,0,1-1.7-3.58,4.88,4.88,0,0,1,2.61-4.59,12.17,12.17,0,0,1,6.37-1.33l4.83,0V703.3c0-3.89-1.91-5.82-5.74-5.82a7,7,0,0,0-4,1,4.8,4.8,0,0,0-2.15,3.22l-1.29-.14a5.9,5.9,0,0,1,2.57-4,8.28,8.28,0,0,1,4.88-1.34A6.9,6.9,0,0,1,934.68,698.36Zm-4.59,7.36c-5.11,0-7.65,1.65-7.65,4.8a3.14,3.14,0,0,0,1.28,2.66,5.76,5.76,0,0,0,3.45,1,8.07,8.07,0,0,0,5.36-2.11c1.56-1.33,2.36-2.7,2.36-4.1v-2.28Z"/><path class="cls-5" d="M950.5,696.61V698a10.36,10.36,0,0,0-2.85-.42,4.93,4.93,0,0,0-4.35,2.56,9.32,9.32,0,0,0-1.39,5.12v9.57h-1.36V696.74h1.36v3.79a6.77,6.77,0,0,1,2.09-2.91,5.63,5.63,0,0,1,3.72-1.37A8.48,8.48,0,0,1,950.5,696.61Z"/><path class="cls-5" d="M965.52,699.13a13.21,13.21,0,0,1,2,7.11h-15a8.86,8.86,0,0,0,1.92,5.72,6.21,6.21,0,0,0,4.9,2.17,6.44,6.44,0,0,0,4.39-1.51,7.37,7.37,0,0,0,2-3.57h1.43a8.64,8.64,0,0,1-2.37,4.34,7.77,7.77,0,0,1-5.46,2,7.35,7.35,0,0,1-5.95-2.63,11.57,11.57,0,0,1-.1-13.6,8,8,0,0,1,12.28,0Zm-11,.49a9.06,9.06,0,0,0-2,5.43h13.64c-.38-5-2.64-7.57-6.82-7.57A6,6,0,0,0,954.49,699.62Z"/><path class="cls-5" d="M972.79,712.48a1.36,1.36,0,0,1,.42,1,1.32,1.32,0,0,1-.42,1,1.4,1.4,0,0,1-1,.42,1.19,1.19,0,0,1-1-.42,1.32,1.32,0,0,1-.42-1,1.36,1.36,0,0,1,.42-1,1.19,1.19,0,0,1,1-.42A1.4,1.4,0,0,1,972.79,712.48Z"/><path class="cls-6" d="M603.64,355.22v22.21H567.45v24.69h32.9v22.21H567.61v46.9H538.82v-46.9h-.16V355.22Z"/><path class="cls-6" d="M649.2,441.23l.17-5.8h27c-.23,7.07-.44,12.26-.66,15.58q-1.65,22.88-31.92,22.87-13.15,0-22.12-4.64T611.2,451a251.31,251.31,0,0,1-1-25.69q0-10.6.65-22.53,1-13.76,9.79-19.72t23.11-6q13.34,0,22.46,6T676,402.79q.33,8.94.33,26.51h-38.5l.17,17.4c.1,3,.74,5.17,1.89,6.55a5.28,5.28,0,0,0,4.19,2.07,3.71,3.71,0,0,0,3.62-1.91,18.23,18.23,0,0,0,1.32-6.54C649.15,446,649.2,444.11,649.2,441.23Zm-9-43.75a7.31,7.31,0,0,0-1.89,5.14c-.23,3.31-.33,6.91-.33,10.77H649.2l-.16-10.6q-.16-3.81-1.32-5.39a3.82,3.82,0,0,0-3.29-1.57A5.84,5.84,0,0,0,640.24,397.48Z"/><path class="cls-6" d="M743.05,383.48q8.48,6,8.47,22.95v64.8H723.39v-6.8q-7.39,8.29-17.76,8.29-8.07,0-13.33-4.14T685.56,456a83.7,83.7,0,0,1-1-13.59q0-10.61,2.14-15.57,4.6-10.6,20.56-13.93,4.93-1,15.79-3.64v-4.14q0-5.14-1-7.05a3.71,3.71,0,0,0-3.62-1.9,4,4,0,0,0-3.87,1.9c-.71,1.27-1.13,3.95-1.23,8l-26.16,2.49q0-15.25,8.39-23.2t23.85-8Q734.58,377.43,743.05,383.48Zm-19.82,67.36V424.16a26.4,26.4,0,0,0-5.43,2.16,8.93,8.93,0,0,0-4.77,7.29c-.22,2.21-.33,4.09-.33,5.63a54.79,54.79,0,0,0,.66,8.29c.65,3.31,2.52,5,5.59,5A5.76,5.76,0,0,0,723.23,450.84Z"/><path class="cls-6" d="M794,439.08a18.5,18.5,0,0,0,.74,5.8,6,6,0,0,0,3.37,3.4c1.76.82,4.45,1.24,8.06,1.24v23.2l-4.11.16c-3.07.22-5.59.34-7.57.34q-12.16,0-20.31-6.63T766,440.74V402.45h-6.25V380.08H766V358h28v22h10.37v22.37H794Z"/><path class="cls-6" d="M890.75,437.25q0,7.14-.66,15.25-1,11.61-9,15.5T860,471.89H821.83l-.17-116h42q11.85,0,17.93,4.47t6.91,14.09c.44,6,.66,10.5.66,13.59a95.39,95.39,0,0,1-.66,11.43,23.72,23.72,0,0,1-3.29,10.28q4.11,4.14,4.93,13.09Q890.75,431.78,890.75,437.25Zm-40.3-65.12v32a37.55,37.55,0,0,0,4.6-.33,6.83,6.83,0,0,0,4.36-2.24,9.23,9.23,0,0,0,2.22-4.89,44,44,0,0,0,.66-8.12c0-1.21-.11-3.7-.33-7.45-.22-3.09-.9-5.31-2.05-6.63a6.8,6.8,0,0,0-4.53-2.32A18.47,18.47,0,0,0,850.45,372.13Zm13.49,66.78q0-3.81-.33-9.44-.33-4.65-2.06-6.63a6.8,6.8,0,0,0-4.52-2.32,31.3,31.3,0,0,0-6.42,0v36.62a38.66,38.66,0,0,0,6.09-.33,6.86,6.86,0,0,0,4.36-2.24,9.38,9.38,0,0,0,2.22-4.89A63.33,63.33,0,0,0,863.94,438.91Z"/><path class="cls-6" d="M902.76,371.47A15.7,15.7,0,0,1,898,360a15.4,15.4,0,0,1,4.77-11.35A15.56,15.56,0,0,1,914.11,344a15.31,15.31,0,0,1,11.27,4.72A15.52,15.52,0,0,1,930.07,360a15.82,15.82,0,0,1-4.69,11.44,15.19,15.19,0,0,1-11.27,4.8A15.45,15.45,0,0,1,902.76,371.47Z"/><rect class="cls-6" x="900.29" y="380.75" width="27.97" height="91.14"/><path class="cls-6" d="M970.86,439.74a18.46,18.46,0,0,0,.74,5.8,6,6,0,0,0,3.38,3.4q2.63,1.24,8.06,1.24v23.2l-4.12.17q-4.6.33-7.56.33-12.18,0-20.32-6.63T942.9,441.4V403.12h-6.25V380.75h6.25v-22h28v22h10.37v22.37H970.86Z"/><rect class="cls-7" x="539.89" y="552.97" width="50.2" height="15.12"/></g></svg>